<svg xmlns="http://www.w3.org/2000/svg" xmlns:xlink="http://www.w3.org/1999/xlink" viewBox="0 0 372.44 271.3"><defs><style>.cls-1{fill:none;}.cls-2{fill:#fff;}.cls-3{fill:#dd008e;}.cls-4{clip-path:url(#clip-path);}.cls-5{fill:#7d2e8e;}.cls-6{fill:#7e2d8e;}.cls-7{fill:#7f2d8e;}.cls-8{fill:#812c8e;}.cls-9{fill:#822c8e;}.cls-10{fill:#832b8e;}.cls-11{fill:#842b8e;}.cls-12{fill:#852a8e;}.cls-13{fill:#86298e;}.cls-14{fill:#88298e;}.cls-15{fill:#89288e;}.cls-16{fill:#8a288e;}.cls-17{fill:#8b278e;}.cls-18{fill:#8c278e;}.cls-19{fill:#8e268e;}.cls-20{fill:#8f268e;}.cls-21{fill:#90258e;}.cls-22{fill:#91248e;}.cls-23{fill:#92248e;}.cls-24{fill:#93238e;}.cls-25{fill:#94238e;}.cls-26{fill:#96228e;}.cls-27{fill:#97228e;}.cls-28{fill:#98218e;}.cls-29{fill:#99218e;}.cls-30{fill:#9a208e;}.cls-31{fill:#9b208e;}.cls-32{fill:#9c1f8e;}.cls-33{fill:#9d1e8e;}.cls-34{fill:#9f1e8e;}.cls-35{fill:#a01d8e;}.cls-36{fill:#a11d8e;}.cls-37{fill:#a21c8e;}.cls-38{fill:#a31c8e;}.cls-39{fill:#a41b8e;}.cls-40{fill:#a51b8e;}.cls-41{fill:#a61a8e;}.cls-42{fill:#a71a8e;}.cls-43{fill:#a9198e;}.cls-44{fill:#aa198e;}.cls-45{fill:#ab188e;}.cls-46{fill:#ac188e;}.cls-47{fill:#ad178e;}.cls-48{fill:#ae178e;}.cls-49{fill:#af168e;}.cls-50{fill:#b0168e;}.cls-51{fill:#b1158e;}.cls-52{fill:#b2158e;}.cls-53{fill:#b3148e;}.cls-54{fill:#b4148e;}.cls-55{fill:#b5138e;}.cls-56{fill:#b6138e;}.cls-57{fill:#b7128e;}.cls-58{fill:#b8128e;}.cls-59{fill:#b9118e;}.cls-60{fill:#ba118e;}.cls-61{fill:#bc108e;}.cls-62{fill:#bd108e;}.cls-63{fill:#be0f8e;}.cls-64{fill:#bf0f8e;}.cls-65{fill:#c00e8e;}.cls-66{fill:#c10e8e;}.cls-67{fill:#c20d8e;}.cls-68{fill:#c30d8e;}.cls-69{fill:#c30c8e;}.cls-70{fill:#c40c8e;}.cls-71{fill:#c50b8e;}.cls-72{fill:#c60b8e;}.cls-73{fill:#c70a8e;}.cls-74{fill:#c80a8e;}.cls-75{fill:#c9098e;}.cls-76{fill:#ca098e;}.cls-77{fill:#cb098e;}.cls-78{fill:#cc088e;}.cls-79{fill:#cd088e;}.cls-80{fill:#ce078e;}.cls-81{fill:#cf078e;}.cls-82{fill:#d0068e;}.cls-83{fill:#d1068e;}.cls-84{fill:#d2058e;}.cls-85{fill:#d3058e;}.cls-86{fill:#d4048e;}.cls-87{fill:#d5048e;}.cls-88{fill:#d6048e;}.cls-89{fill:#d6038e;}.cls-90{fill:#d7038e;}.cls-91{fill:#d8028e;}.cls-92{fill:#d9028e;}.cls-93{fill:#da018e;}.cls-94{fill:#db018e;}.cls-95{fill:#dc008e;}</style><clipPath id="clip-path"><path class="cls-1" d="M258.09,87.72a79.81,79.81,0,0,1-47.4,72.95c2.71-16.49,1.72-32.41-10.9-46.18-3-3.27-5.27-6.17-.51-10-3.91-2-3.55-4.73-2.84-7.91,3-13.2,5.72-26.45,8.55-39.69.88-4.1,2.16-7.77,7.09-8.62,1-.18,2-1.16,2.94-1.78l-.47-1.1c-1.41.12-2.83.18-4.23.38-6.52.93-6.63.85-8.69-5.55-.52-1.61-1.25-3.15-1.88-4.72l-1.49.55c.55,2.55,1.12,5.11,1.9,8.72l-6.56-5.19-.78.87c1.43,2,2.87,4,4.71,6.54l-5.89-.73c8.34,6.12,8.87,6.65,5.27,16.21C192.62,73.9,187.56,85,182.72,96.2c-.61,1.42-1.91,2.54-2.89,3.79l-1.23-.69c1-2.74,1.83-5.51,2.86-8.21.74-1.93,1.26-3.35-1.1-4.86s-4.33-4-6.58-6c-1.11-1-2.68-2.44-3.75-2.22-5,1-7.91-2-10.65-5.09-.82-.94-.53-2.85-.82-4.81a24.89,24.89,0,0,0-16.87,5.2c-9.35,6.89-14.86,15.36-11.9,27.38L126.47,102c.84,1.72,1.19,4,2.38,4.61,5.13,2.62,9.52,6.25,14.27,9.36,5.42,3.54,16.46,2.68,21.08-1.89,2.4-2.39,4.41-2.25,7.16-.53-.94,1.55-1.8,2.92-2.64,4.29-2.63,4.3-6.07,8.32-7.69,13-2.47,7.09-5.36,13.37-12.6,17.07h6.26c-1.32,2-2.37,3.64-3.43,5.25l.74.57,6.64-4.26c-.75,3.12-1.26,5.2-1.76,7.27l1.1.37,3.67-6,3.43,2.4,1.48-.06c-5.51-8.68-1.5-15.08,3.58-21.17,1.47.24,3.26,1.09,4,.55,3.54-2.75,4.85,0,6.13,2.31,3.66,6.54,2,13.16-.79,19.32a41.68,41.68,0,0,0-3.62,13.06,79.81,79.81,0,1,1,82.26-79.77Z"/></clipPath></defs><title>logo-full</title><g id="Layer_2" data-name="Layer 2"><g id="Layer_1-2" data-name="Layer 1"><path class="cls-2" d="M3.44,241.14H26.09v2.94H0V196.32H3.44Z"/><path class="cls-2" d="M35.27,210.49V232a11.51,11.51,0,0,0,2.17,7.41q2.18,2.69,6.61,2.68a11.85,11.85,0,0,0,6.13-1.67,17.8,17.8,0,0,0,5.11-4.64V210.49H58.5v33.59H56.73a.84.84,0,0,1-1-.88l-.3-5a19.16,19.16,0,0,1-5.39,4.65,13.46,13.46,0,0,1-6.82,1.76,12.53,12.53,0,0,1-4.9-.88,9.06,9.06,0,0,1-3.48-2.53,11.19,11.19,0,0,1-2.09-4,17.87,17.87,0,0,1-.71-5.27V210.49Z"/><path class="cls-2" d="M91.54,215a2.71,2.71,0,0,1-.32.29.66.66,0,0,1-.42.12,1.7,1.7,0,0,1-.93-.46,12.88,12.88,0,0,0-4-2,13.6,13.6,0,0,0-8.7.57,10.36,10.36,0,0,0-3.79,3A13.52,13.52,0,0,0,71,221.13a23.92,23.92,0,0,0,0,12.42,13.43,13.43,0,0,0,2.34,4.61A10,10,0,0,0,77.06,241a11.52,11.52,0,0,0,4.79,1,12.22,12.22,0,0,0,4.07-.58,13.18,13.18,0,0,0,2.7-1.25,11.77,11.77,0,0,0,1.69-1.25,1.76,1.76,0,0,1,1-.57.76.76,0,0,1,.67.34l.88,1.08a10.12,10.12,0,0,1-2,1.89,13.76,13.76,0,0,1-2.67,1.52,15.72,15.72,0,0,1-3.22,1,17.88,17.88,0,0,1-3.63.36,14.28,14.28,0,0,1-5.85-1.17A12.62,12.62,0,0,1,71,240a15.88,15.88,0,0,1-3-5.42,23.1,23.1,0,0,1-1.07-7.29,22.8,22.8,0,0,1,1-7,15.73,15.73,0,0,1,3-5.47,13.17,13.17,0,0,1,4.76-3.56A15.52,15.52,0,0,1,82.12,210,15.19,15.19,0,0,1,88,211a14.34,14.34,0,0,1,4.44,2.83Z"/><path class="cls-2" d="M103.69,195v29.94h1.56a2.91,2.91,0,0,0,.89-.14,2.46,2.46,0,0,0,.93-.64l13.47-12.79a3.84,3.84,0,0,1,.76-.61,1.84,1.84,0,0,1,1-.24h2.84l-14.82,14.08-.64.62a3,3,0,0,1-.68.49,3.51,3.51,0,0,1,.91.64l.78.81,15.56,17h-2.8a1.76,1.76,0,0,1-.84-.19,2.58,2.58,0,0,1-.75-.59l-14.11-15.12a2.72,2.72,0,0,0-2.53-1.05h-1.52v17h-3.2V195Z"/><path class="cls-2" d="M140.69,254.88a2.47,2.47,0,0,1-.52.78,1.33,1.33,0,0,1-.93.3h-2.3l5.91-13.13-14.21-32.34h2.66a1.17,1.17,0,0,1,.8.26,1.56,1.56,0,0,1,.42.55l11.31,26.13c.13.34.25.68.35,1s.2.7.29,1.06c.11-.36.23-.71.35-1.06l.39-1,11.17-26.13a1.64,1.64,0,0,1,.48-.59,1.17,1.17,0,0,1,.67-.22H160Z"/><path class="cls-3" d="M199.25,232.57a1.72,1.72,0,0,1,1.29.57l3.57,3.89a19.59,19.59,0,0,1-7.3,5.63,25.17,25.17,0,0,1-10.42,2,24.56,24.56,0,0,1-9.77-1.86,21.54,21.54,0,0,1-7.41-5.16,22.61,22.61,0,0,1-4.71-7.9,29.68,29.68,0,0,1-1.63-10,26.89,26.89,0,0,1,1.82-10.07,22.88,22.88,0,0,1,5.13-7.88,23.15,23.15,0,0,1,7.91-5.15,27.2,27.2,0,0,1,10.18-1.84,24,24,0,0,1,9.5,1.74,22.1,22.1,0,0,1,7,4.6l-3,4.22a2.49,2.49,0,0,1-.7.71,1.9,1.9,0,0,1-1.16.31,2.63,2.63,0,0,1-1.59-.61,19.25,19.25,0,0,0-2.06-1.32,16.54,16.54,0,0,0-3.15-1.31,16.1,16.1,0,0,0-4.85-.61,16.37,16.37,0,0,0-6.33,1.2,14.22,14.22,0,0,0-5,3.42,15.91,15.91,0,0,0-3.24,5.42,21,21,0,0,0-1.16,7.17,21.56,21.56,0,0,0,1.16,7.33,16.08,16.08,0,0,0,3.16,5.4,13.58,13.58,0,0,0,4.69,3.36,14.63,14.63,0,0,0,5.81,1.16,24.69,24.69,0,0,0,3.36-.2,14,14,0,0,0,2.76-.64,12,12,0,0,0,2.4-1.13,14.65,14.65,0,0,0,2.24-1.71,3.93,3.93,0,0,1,.71-.49A1.85,1.85,0,0,1,199.25,232.57Z"/><path class="cls-3" d="M252.15,244.08H243V222.75H220.11v21.33H211V195.27h9.14v21H243v-21h9.15Z"/><path class="cls-3" d="M272.23,244.08h-9.11V195.27h9.11Z"/><path class="cls-3" d="M292.28,236.59h19.55v7.49H283.2V195.27h9.08Z"/><path class="cls-3" d="M361.45,219.67a26.45,26.45,0,0,1-1.79,9.86,22.78,22.78,0,0,1-5,7.73,22.46,22.46,0,0,1-7.8,5,27.45,27.45,0,0,1-10.09,1.79H318.1V195.27h18.64a27.25,27.25,0,0,1,10.09,1.8,22.92,22.92,0,0,1,7.8,5,22.41,22.41,0,0,1,5,7.71A26.43,26.43,0,0,1,361.45,219.67Zm-9.29,0a22.37,22.37,0,0,0-1.08-7.2,15.16,15.16,0,0,0-3.07-5.4,13.24,13.24,0,0,0-4.84-3.4,16.82,16.82,0,0,0-6.43-1.18h-9.49v34.37h9.49a16.63,16.63,0,0,0,6.43-1.19,13.1,13.1,0,0,0,4.84-3.39,15.16,15.16,0,0,0,3.07-5.4A22.43,22.43,0,0,0,352.16,219.67Z"/><g class="cls-4"><rect class="cls-5" x="98.47" y="7.91" width="159.62" height="159.58"/><path class="cls-5" d="M121,154.89a153.22,153.22,0,0,1-22.31-21.16c-1.64-1.92-3.23-3.86-4.77-5.84h3.59V6.91H259.09V168.49H147v2.68A152.94,152.94,0,0,1,121,154.89Z"/><path class="cls-6" d="M121.93,153.64A151.1,151.1,0,0,1,99.85,132.7Q95,127,90.73,121h6.74V6.91H259.09V168.49H147.74v1.26A151,151,0,0,1,121.93,153.64Z"/><path class="cls-7" d="M122.89,152.39a149.92,149.92,0,0,1-21.84-20.72q-4.83-5.62-9-11.62h5.44V6.91H259.09V168.49H161.94v5.66a145.45,145.45,0,0,1-13.51-5.82A150.52,150.52,0,0,1,122.89,152.39Z"/><path class="cls-8" d="M123.86,151.13a147.75,147.75,0,0,1-21.61-20.49q-4.78-5.56-8.93-11.49h4.15V6.91H259.09V168.49h-96.6v4.18q-6.78-2.53-13.36-5.76A147.41,147.41,0,0,1,123.86,151.13Z"/><path class="cls-9" d="M124.83,149.88a146.14,146.14,0,0,1-21.38-20.27q-4.73-5.51-8.83-11.37h2.85V6.91H259.09V168.49H163v2.7q-6.71-2.5-13.22-5.7A145.8,145.8,0,0,1,124.83,149.88Z"/><path class="cls-10" d="M125.8,148.63a145.06,145.06,0,0,1-21.15-20q-4.68-5.45-8.74-11.25h1.56V6.91H259.09V168.49H177V174A143.44,143.44,0,0,1,125.8,148.63Z"/><path class="cls-11" d="M126.76,147.38a143.38,143.38,0,0,1-20.91-19.83q-4.62-5.39-8.64-11.12h.26V6.91H259.09V167.68H265c-2.14.82-4.29,1.58-6.46,2.3v-1.49H177.42v3.95A141.85,141.85,0,0,1,126.76,147.38Z"/><path class="cls-12" d="M127.73,146.13a140.06,140.06,0,0,1-36.55-42.27h6.29V6.91H259.09V166.2h5.29q-3.17,1.22-6.39,2.28a141.8,141.8,0,0,1-26.34,6v-5.94H177.82v2.42A140.34,140.34,0,0,1,127.73,146.13Z"/><path class="cls-13" d="M128.7,144.88a138.62,138.62,0,0,1-36.14-41.79h4.91V6.91H259.09V164.73h4.72c-2.09.8-4.19,1.55-6.32,2.25a139.38,139.38,0,0,1-26,5.88v-4.37H178.23v.89A138.62,138.62,0,0,1,128.7,144.88Z"/><path class="cls-14" d="M129.67,143.63a137.16,137.16,0,0,1-35.74-41.32h3.54V6.91H259.09V163.25h4.15q-3.09,1.19-6.24,2.22a138,138,0,0,1-78.37,2.38A137,137,0,0,1,129.67,143.63Z"/><path class="cls-15" d="M130.63,142.38a135.7,135.7,0,0,1-35.32-40.84h2.16V6.91H259.09V161.77h3.59c-2.05.79-4.1,1.52-6.18,2.2a136.64,136.64,0,0,1-25.45,5.76A135.58,135.58,0,0,1,130.63,142.38Z"/><path class="cls-16" d="M131.6,141.13a134.17,134.17,0,0,1-34.91-40.37h.78V6.91H259.09V160.3h3c-2,.77-4.05,1.5-6.1,2.17a135.29,135.29,0,0,1-25.16,5.69A134,134,0,0,1,131.6,141.13Z"/><path class="cls-17" d="M132.57,139.88A132.35,132.35,0,0,1,98.07,100q-3.16-5.64-5.76-11.53h5.16V6.91H259.09V158.82h2.45c-2,.77-4,1.48-6,2.15a132.87,132.87,0,0,1-24.86,5.62A132.39,132.39,0,0,1,132.57,139.88Z"/><path class="cls-18" d="M133.54,138.63A130.82,130.82,0,0,1,99.45,99.21q-3.14-5.58-5.69-11.39h3.71V6.91H259.09V157.35H261q-3,1.13-6,2.12A132.33,132.33,0,0,1,230.45,165,130.8,130.8,0,0,1,133.54,138.63Z"/><path class="cls-19" d="M134.5,137.38A129.27,129.27,0,0,1,90.72,75.5h6.75V6.91H259.09v149h1.32q-2.93,1.13-5.89,2.1a130.7,130.7,0,0,1-24.27,5.48A129.26,129.26,0,0,1,134.5,137.38Z"/><path class="cls-20" d="M135.47,136.13A127.34,127.34,0,0,1,92.23,75h5.24V6.91H259.09V152h6.47q-5.67,2.49-11.54,4.42a128.22,128.22,0,0,1-118.55-20.33Z"/><path class="cls-21" d="M136.44,134.88A125.85,125.85,0,0,1,93.73,74.51h3.74V6.91H259.09V150.59h5.83c-3.73,1.65-7.54,3.1-11.39,4.37a127.78,127.78,0,0,1-23.68,5.36A126.11,126.11,0,0,1,136.44,134.88Z"/><path class="cls-22" d="M137.41,133.63A124.24,124.24,0,0,1,95.23,74h2.24V6.91H259.09V149.15h5.19c-3.68,1.62-7.44,3.06-11.25,4.31a125.36,125.36,0,0,1-23.38,5.29A124.53,124.53,0,0,1,137.41,133.63Z"/><path class="cls-23" d="M138.38,132.38A122.94,122.94,0,0,1,91.51,50.44h6V6.91H259.09V147.7h4.55q-5.46,2.4-11.1,4.26a124,124,0,0,1-23.09,5.22A122.94,122.94,0,0,1,138.38,132.38Z"/><path class="cls-24" d="M139.34,131.13A121.37,121.37,0,0,1,93.08,50.24h4.39V6.91H259.09V146.25H263q-5.4,2.37-11,4.21a122.39,122.39,0,0,1-22.79,5.15A121.41,121.41,0,0,1,139.34,131.13Z"/><path class="cls-25" d="M140.31,129.88A120.31,120.31,0,0,1,97.66,4.07V6.91H259.09V144.8h3.28Q257,147.16,251.54,149A120.58,120.58,0,0,1,229.05,154,119.83,119.83,0,0,1,140.31,129.88Z"/><path class="cls-26" d="M141.28,128.63A118.73,118.73,0,0,1,99.19,4.47V6.91h159.9V143.36h2.64c-3.5,1.54-7.07,2.9-10.68,4.1a119.24,119.24,0,0,1-22.2,5A118.21,118.21,0,0,1,141.28,128.63Z"/><path class="cls-27" d="M142.25,127.37A117.11,117.11,0,0,1,100.71,4.88v2H259.09v135h2q-5.17,2.28-10.54,4a117.66,117.66,0,0,1-21.9,5A116.64,116.64,0,0,1,142.25,127.37Z"/><path class="cls-28" d="M143.21,126.12a115.55,115.55,0,0,1-41-120.84V6.91H259.09V140.46h1.36q-5.1,2.25-10.39,4a116.32,116.32,0,0,1-21.61,4.89A115.09,115.09,0,0,1,143.21,126.12Z"/><path class="cls-29" d="M144.18,124.87A114,114,0,0,1,103.77,5.69V6.91H259.09V139h.72q-5,2.22-10.25,3.93a113.9,113.9,0,0,1-21.31,4.82A113.51,113.51,0,0,1,144.18,124.87Z"/><path class="cls-30" d="M145.15,123.62A112.39,112.39,0,0,1,105.3,6.09v.82H259.09V137.57h.09q-5,2.19-10.12,3.88a113.07,113.07,0,0,1-21,4.75A111.89,111.89,0,0,1,145.15,123.62Z"/><path class="cls-31" d="M146.12,122.37A110.8,110.8,0,0,1,106.83,6.5v.41H259.09V133.84h4.3q-2.4,1.2-4.85,2.28-4.91,2.16-10,3.83a110.93,110.93,0,0,1-20.72,4.68A110.32,110.32,0,0,1,146.12,122.37Z"/><path class="cls-32" d="M147.08,121.12A109.24,109.24,0,0,1,108.36,6.9H259.09V132.43h3.59c-1.57.79-3.17,1.54-4.78,2.25q-4.83,2.12-9.83,3.77a109.3,109.3,0,0,1-20.42,4.61A108.77,108.77,0,0,1,147.08,121.12Z"/><path class="cls-33" d="M148.05,119.87A107.65,107.65,0,0,1,109.89,7.31q.66-2.53,1.46-5V6.91H259.09V131H262q-2.34,1.15-4.72,2.21c-3.17,1.4-6.41,2.63-9.68,3.71a108,108,0,0,1-20.13,4.55A107.19,107.19,0,0,1,148.05,119.87Z"/><path class="cls-34" d="M149,118.62A106,106,0,0,1,111.42,7.71q.66-2.49,1.44-5V6.91H259.09V127.19h6.73a106.31,106.31,0,0,1-38.57,12.74A105.62,105.62,0,0,1,149,118.62Z"/><path class="cls-35" d="M150,117.37A104.43,104.43,0,0,1,113,8.12q.64-2.46,1.42-4.9V6.91H259.09v118.9h6a104.54,104.54,0,0,1-38,12.55A104,104,0,0,1,150,117.37Z"/><path class="cls-36" d="M151,116.12A102.9,102.9,0,0,1,114.47,8.52q.65-2.41,1.41-4.82V6.91H259.09V124.43h5.18a103.12,103.12,0,0,1-37.42,12.36A102.41,102.41,0,0,1,151,116.12Z"/><path class="cls-37" d="M151.92,114.87A101.33,101.33,0,0,1,116,8.92c.42-1.58.88-3.17,1.38-4.74V6.91H259.09V123.05h4.4a101.41,101.41,0,0,1-36.84,12.17A100.87,100.87,0,0,1,151.92,114.87Z"/><path class="cls-38" d="M152.89,113.62A99.75,99.75,0,0,1,117.53,9.33q1.25-4.69,3-9.29V6.91H259.09V121.67h3.63a99.75,99.75,0,0,1-36.27,12A99.31,99.31,0,0,1,152.89,113.62Z"/><path class="cls-39" d="M153.86,112.37A98.17,98.17,0,0,1,119.06,9.73,95.87,95.87,0,0,1,122,.59V6.91H259.09V120.3h2.85a98,98,0,0,1-35.69,11.78A97.68,97.68,0,0,1,153.86,112.37Z"/><path class="cls-40" d="M154.83,111.12a96.58,96.58,0,0,1-34.24-101,93.75,93.75,0,0,1,2.86-9V6.91H259.09v112h2.07a96.5,96.5,0,0,1-35.11,11.59A96.1,96.1,0,0,1,154.83,111.12Z"/><path class="cls-41" d="M155.79,109.87a95,95,0,0,1-33.67-99.33c.79-3,1.72-5.93,2.81-8.84V6.91H259.09V117.54h1.3A95,95,0,0,1,225.85,129,94.6,94.6,0,0,1,155.79,109.87Z"/><path class="cls-42" d="M156.76,108.62A93.38,93.38,0,0,1,123.65,11q1.16-4.39,2.76-8.7V6.91H259.09V116.16h.52a93.38,93.38,0,0,1-102.85-7.54Z"/><path class="cls-43" d="M157.73,107.37a91.8,91.8,0,0,1-32.55-96Q126.32,7,127.89,2.8V6.91h131.2V112.49h3.6q-1.9,1.2-3.85,2.29a91.92,91.92,0,0,1-33.39,11A91.44,91.44,0,0,1,157.73,107.37Z"/><path class="cls-44" d="M158.7,106.12a90.22,90.22,0,0,1-32-94.36,84.38,84.38,0,0,1,2.67-8.4V6.91H259.09v101.8h6.44c-2.42,1.69-4.92,3.26-7.47,4.69a90.21,90.21,0,0,1-32.81,10.84A89.82,89.82,0,0,1,158.7,106.12Z"/><path class="cls-45" d="M159.66,104.87a88.7,88.7,0,0,1-31.43-92.71c.74-2.78,1.61-5.53,2.63-8.25v3H259.09v100.5h5.53c-2.38,1.67-4.83,3.21-7.33,4.62a88.79,88.79,0,0,1-32.24,10.64A88.28,88.28,0,0,1,159.66,104.87Z"/><path class="cls-46" d="M160.63,103.61a87.09,87.09,0,0,1-30.87-91c.73-2.73,1.58-5.44,2.58-8.11V6.91H259.09v99.21h4.62c-2.33,1.63-4.74,3.14-7.2,4.53a87.07,87.07,0,0,1-31.66,10.45A86.66,86.66,0,0,1,160.63,103.61Z"/><path class="cls-47" d="M161.6,102.36A85.46,85.46,0,0,1,131.29,13q1.07-4,2.53-8v1.9H259.09v97.91h3.72q-3.45,2.42-7.07,4.45a85.81,85.81,0,0,1-31.09,10.27A85.14,85.14,0,0,1,161.6,102.36Z"/><path class="cls-48" d="M162.57,101.11a83.87,83.87,0,0,1-29.75-87.73c.7-2.63,1.52-5.24,2.48-7.82V6.91H259.09v96.62h2.81c-2.25,1.57-4.57,3-6.94,4.36A84.1,84.1,0,0,1,224.45,118,83.51,83.51,0,0,1,162.57,101.11Z"/><path class="cls-49" d="M163.53,99.86a82.31,82.31,0,0,1-29.18-86.08,78.25,78.25,0,0,1,2.44-7.66v.79h122.3v95.32H261a79.22,79.22,0,0,1-6.81,4.28,82.29,82.29,0,0,1-90.65-6.65Z"/><path class="cls-50" d="M164.5,98.61a80.72,80.72,0,0,1-28.62-84.42c.67-2.53,1.46-5,2.39-7.52v.24H259.09v94h1q-3.25,2.28-6.68,4.2a80.72,80.72,0,0,1-29.36,9.7A80.38,80.38,0,0,1,164.5,98.61Z"/><path class="cls-51" d="M165.47,97.36a79.15,79.15,0,0,1-28.06-82.77A78,78,0,0,1,142.85,0V6.91H259.09V94.84h6.27a79.11,79.11,0,0,1-99.89,2.52Z"/><path class="cls-52" d="M166.44,96.11A77.56,77.56,0,0,1,138.94,15,76.4,76.4,0,0,1,144.27.73V6.91H259.09V93.64h5.24a77.16,77.16,0,0,1-40.68,18A77.18,77.18,0,0,1,166.44,96.11Z"/><path class="cls-53" d="M167.41,94.86A76,76,0,0,1,140.47,15.4a75.13,75.13,0,0,1,5.22-14V6.91h113.4V92.44h4.21A75.29,75.29,0,0,1,251.08,101a76,76,0,0,1-83.67-6.14Z"/><path class="cls-54" d="M168.37,93.61A74.25,74.25,0,0,1,147.11,2.12V6.91h112V91.24h3.18a74.13,74.13,0,0,1-39,17.32A74.11,74.11,0,0,1,168.37,93.61Z"/><path class="cls-55" d="M169.34,92.36A72.65,72.65,0,0,1,148.53,2.82V6.91H259.09V90h2.15a72.17,72.17,0,0,1-11.71,8.2A72.9,72.9,0,0,1,223.05,107,72.54,72.54,0,0,1,169.34,92.36Z"/><path class="cls-56" d="M170.31,91.11a71.23,71.23,0,0,1-25.26-74.49A70.07,70.07,0,0,1,150,3.52V6.91H259.09V88.84h1.12a71.19,71.19,0,0,1-89.9,2.27Z"/><path class="cls-57" d="M171.28,89.86A69.51,69.51,0,0,1,151.37,4.21v2.7H259.09V87.64h.09A69.24,69.24,0,0,1,248,95.48a69.71,69.71,0,0,1-25.33,8.37A69.33,69.33,0,0,1,171.28,89.86Z"/><path class="cls-58" d="M172.24,88.61a67.95,67.95,0,0,1-19.45-83.7v2h106.3V81.73h4q-2.37,2.49-4.94,4.71a67.79,67.79,0,0,1-35.7,15.84A67.78,67.78,0,0,1,172.24,88.61Z"/><path class="cls-59" d="M173.21,87.36a66.38,66.38,0,0,1-19-81.76V6.91H259.09V80.64H262q-2.32,2.44-4.83,4.6a66.47,66.47,0,0,1-83.91,2.12Z"/><path class="cls-60" d="M174.18,86.11a64.92,64.92,0,0,1-23-67.87A64.05,64.05,0,0,1,155.63,6.3v.61H259.09v67.6h6A64.83,64.83,0,0,1,174.18,86.11Z"/><path class="cls-61" d="M175.15,84.86A63.29,63.29,0,0,1,152.7,18.64a63.43,63.43,0,0,1,7.43-17.2V6.91h99V73.54h4.78A63.24,63.24,0,0,1,175.15,84.86Z"/><path class="cls-62" d="M176.11,83.61a61.71,61.71,0,0,1-21.88-64.56,60.65,60.65,0,0,1,4.24-11.36,58.77,58.77,0,0,1,3-5.41V6.91h97.61V72.58h3.53A61.67,61.67,0,0,1,176.11,83.61Z"/><path class="cls-63" d="M177.08,82.36a60.14,60.14,0,0,1-21.32-62.91,59.12,59.12,0,0,1,4.13-11.06q1.32-2.69,2.93-5.28v3.8h96.27v64.7h2.28A60.09,60.09,0,0,1,177.08,82.36Z"/><path class="cls-64" d="M178.05,81.11a58.59,58.59,0,0,1-20.77-61.25,57.55,57.55,0,0,1,4-10.78Q162.6,6.47,164.16,4v3h94.93V70.64h1A58.51,58.51,0,0,1,178.05,81.11Z"/><path class="cls-65" d="M179,79.85A56.92,56.92,0,0,1,168.83,0V6.91h90.26v53H265a57,57,0,0,1-86,20Z"/><path class="cls-66" d="M180,78.6A55.32,55.32,0,0,1,170.09,1V6.91h89V59.2h4.47A55.42,55.42,0,0,1,180,78.6Z"/><path class="cls-67" d="M181,77.35a53.75,53.75,0,0,1-9.61-75.41v5h86.58V4c1,1.45,1.94,2.93,2.8,4.46h-1.63V48.6h6.75A53.79,53.79,0,0,1,181,77.35Z"/><path class="cls-68" d="M181.92,76.1a52.18,52.18,0,0,1-9.33-73.2v4h80.86V.84a51.48,51.48,0,0,1,5.89,8.4h-.25v39h5.22a52.21,52.21,0,0,1-82.39,27.9Z"/><path class="cls-69" d="M182.89,74.85a50.6,50.6,0,0,1-9-71v3h78.41v-5A49.63,49.63,0,0,1,258,10a50.6,50.6,0,0,1-75.07,64.83Z"/><path class="cls-70" d="M183.86,73.6a49,49,0,0,1-8.77-68.76V6.91h76v-4a48.55,48.55,0,0,1,5.53,7.89A49,49,0,0,1,183.86,73.6Z"/><path class="cls-71" d="M184.82,72.35a47.43,47.43,0,0,1-8.48-66.54v1.1h73.51v-3a46.75,46.75,0,0,1,5.36,7.64,47.45,47.45,0,0,1-70.39,60.78Z"/><path class="cls-72" d="M185.79,71.1a45.85,45.85,0,0,1-8.2-64.33v.14h71.06V5A45.86,45.86,0,0,1,185.79,71.1Z"/><path class="cls-73" d="M186.76,69.85A44.3,44.3,0,0,1,185,1.24V6.91h62.44V6a44.3,44.3,0,0,1,1.42,55.94A44.28,44.28,0,0,1,186.76,69.85Z"/><path class="cls-74" d="M187.73,68.6A42.72,42.72,0,0,1,186,2.44V6.91H240V1.07A42.69,42.69,0,0,1,187.73,68.6Z"/><path class="cls-75" d="M188.69,67.35a41.15,41.15,0,0,1-1.62-63.71V6.91H239V2.32a41.11,41.11,0,1,1-50.32,65Z"/><path class="cls-76" d="M189.66,66.1A39.54,39.54,0,0,1,194.46.38V6.91h43.59V3.57A39.53,39.53,0,1,1,189.66,66.1Z"/><path class="cls-77" d="M190.63,64.85a38,38,0,0,1,4.61-63.1V6.91h41.84V4.82a38,38,0,0,1-46.45,60Z"/><path class="cls-78" d="M191.6,63.6A36.39,36.39,0,0,1,196,3.13V6.91h40.09V6.07A36.37,36.37,0,1,1,191.6,63.6Z"/><path class="cls-79" d="M192.56,62.35a34.79,34.79,0,0,1,16.89-62V6.91h13.31V1.2a34.79,34.79,0,1,1-30.2,61.15Z"/><path class="cls-80" d="M193.53,61.1a33.2,33.2,0,1,1,46.58-5.94A33.21,33.21,0,0,1,193.53,61.1Z"/><path class="cls-81" d="M194.5,59.85a31.62,31.62,0,1,1,44.36-5.66A31.63,31.63,0,0,1,194.5,59.85Z"/><circle class="cls-82" cx="213.85" cy="34.84" r="30.04"/><circle class="cls-82" cx="213.85" cy="34.84" r="28.46"/><circle class="cls-83" cx="213.85" cy="34.84" r="26.88"/><circle class="cls-84" cx="213.85" cy="34.84" r="25.3"/><circle class="cls-85" cx="213.85" cy="34.84" r="23.72"/><circle class="cls-86" cx="213.85" cy="34.84" r="22.14"/><circle class="cls-87" cx="213.85" cy="34.84" r="20.56"/><circle class="cls-88" cx="213.85" cy="34.84" r="18.97"/><circle class="cls-89" cx="213.85" cy="34.84" r="17.39"/><circle class="cls-90" cx="213.85" cy="34.84" r="15.81"/><circle class="cls-91" cx="213.85" cy="34.84" r="14.23"/><circle class="cls-92" cx="213.85" cy="34.84" r="12.65"/><circle class="cls-92" cx="213.85" cy="34.84" r="11.07"/><circle class="cls-93" cx="213.85" cy="34.84" r="9.49"/><circle class="cls-94" cx="213.85" cy="34.84" r="7.91"/><circle class="cls-94" cx="213.85" cy="34.84" r="6.32"/><circle class="cls-95" cx="213.85" cy="34.84" r="4.74"/><circle class="cls-3" cx="213.85" cy="34.84" r="3.16"/><circle class="cls-3" cx="213.85" cy="34.84" r="1.58"/></g><path class="cls-2" d="M362.58,173.16v.53h-3v8H359v-8h-3v-.53Z"/><path class="cls-2" d="M368.29,179.54c0-.06,0-.12.08-.19a.89.89,0,0,1,.08-.17l3.34-5.9a.22.22,0,0,1,.09-.1l.14,0h.42v8.49h-.54v-7.23c0-.1,0-.21,0-.33L368.58,180a.26.26,0,0,1-.24.16h-.1A.26.26,0,0,1,368,180l-3.43-5.94c0,.12,0,.23,0,.34v7.23h-.54v-8.49h.42l.14,0a.24.24,0,0,1,.1.1l3.42,5.9A1.89,1.89,0,0,1,368.29,179.54Z"/><path class="cls-2" d="M185.68,261.28v.6h-5.21v4h4.34v.58h-4.34v4.13h5.21v.6h-5.93v-9.91Z"/><path class="cls-2" d="M198.71,261.31a.24.24,0,0,1,.12.11l6.42,8.58a2.88,2.88,0,0,1,0-.41v-8.31h.63v9.91h-.35a.33.33,0,0,1-.26-.14l-6.44-8.6a2.82,2.82,0,0,1,0,.4v8.34h-.62v-9.91h.35A.28.28,0,0,1,198.71,261.31Z"/><path class="cls-2" d="M225.46,261.28v.61H222v9.3h-.72v-9.3h-3.5v-.61Z"/><path class="cls-2" d="M243.3,261.28v.6h-5.22v4h4.34v.58h-4.34v4.13h5.22v.6h-5.94v-9.91Z"/><path class="cls-2" d="M256.75,266.71v4.48H256v-9.91h2.52a4.16,4.16,0,0,1,2.57.66,2.34,2.34,0,0,1,.84,1.95,2.63,2.63,0,0,1-.19,1,2.37,2.37,0,0,1-.57.83,3.28,3.28,0,0,1-.88.58,3.86,3.86,0,0,1-1.17.29,1.32,1.32,0,0,1,.3.28l3.41,4.29h-.62a.59.59,0,0,1-.2,0,.64.64,0,0,1-.15-.14l-3.17-4a.75.75,0,0,0-.26-.22,1.1,1.1,0,0,0-.42-.06Zm0-.53h1.72a4.21,4.21,0,0,0,1.18-.16,2.86,2.86,0,0,0,.89-.45,1.87,1.87,0,0,0,.54-.71,2.18,2.18,0,0,0,.19-.93,1.82,1.82,0,0,0-.69-1.57,3.36,3.36,0,0,0-2-.51h-1.81Z"/><path class="cls-2" d="M275.78,267.2v4h-.72v-9.91h2.56a3.93,3.93,0,0,1,2.63.77,2.69,2.69,0,0,1,.88,2.17,2.92,2.92,0,0,1-.24,1.2,2.58,2.58,0,0,1-.7.94,3.35,3.35,0,0,1-1.1.62,4.73,4.73,0,0,1-1.47.22Zm0-.58h1.84a3.51,3.51,0,0,0,1.17-.18,2.6,2.6,0,0,0,.88-.5,2.31,2.31,0,0,0,.56-.76,2.49,2.49,0,0,0,.19-1,2.2,2.2,0,0,0-.71-1.75,3.07,3.07,0,0,0-2.09-.62h-1.84Z"/><path class="cls-2" d="M294.28,266.71v4.48h-.72v-9.91h2.53a4.1,4.1,0,0,1,2.56.66,2.32,2.32,0,0,1,.85,1.95,2.46,2.46,0,0,1-.2,1,2.34,2.34,0,0,1-.56.83,3.28,3.28,0,0,1-.88.58,3.86,3.86,0,0,1-1.17.29,1.32,1.32,0,0,1,.3.28l3.41,4.29h-.63a.53.53,0,0,1-.19,0,.67.67,0,0,1-.16-.14l-3.17-4a.72.72,0,0,0-.25-.22,1.16,1.16,0,0,0-.43-.06Zm0-.53H296a4.26,4.26,0,0,0,1.18-.16,2.7,2.7,0,0,0,.88-.45,1.9,1.9,0,0,0,.55-.71,2.18,2.18,0,0,0,.19-.93,1.82,1.82,0,0,0-.69-1.57,3.38,3.38,0,0,0-2-.51h-1.81Z"/><path class="cls-2" d="M313.36,271.19h-.72v-9.91h.72Z"/><path class="cls-2" d="M331.55,262.49a.19.19,0,0,1-.18.12.42.42,0,0,1-.23-.13,2.82,2.82,0,0,0-.39-.29,3,3,0,0,0-.62-.29,2.66,2.66,0,0,0-.91-.13,2.75,2.75,0,0,0-1,.15,2,2,0,0,0-.69.42,1.89,1.89,0,0,0-.42.62,2,2,0,0,0-.14.73,1.5,1.5,0,0,0,.21.83,1.87,1.87,0,0,0,.56.56,3.3,3.3,0,0,0,.8.39l.92.31.91.34a3.51,3.51,0,0,1,.8.47,2,2,0,0,1,.77,1.71,3.28,3.28,0,0,1-.21,1.17,2.65,2.65,0,0,1-.62.95,2.84,2.84,0,0,1-1,.65,3.74,3.74,0,0,1-1.35.23,3.69,3.69,0,0,1-2.92-1.3l.19-.3a.26.26,0,0,1,.2-.11.29.29,0,0,1,.16.09l.24.2a4,4,0,0,0,.34.27,3.14,3.14,0,0,0,.45.26,2.34,2.34,0,0,0,.6.21,3,3,0,0,0,.76.08,2.89,2.89,0,0,0,1.05-.17,2.21,2.21,0,0,0,.78-.49,2,2,0,0,0,.49-.73,2.49,2.49,0,0,0,.17-.91,1.59,1.59,0,0,0-.21-.86,1.94,1.94,0,0,0-.57-.57,3.49,3.49,0,0,0-.8-.38l-.91-.3c-.31-.1-.62-.21-.91-.33a3,3,0,0,1-.8-.47,2.14,2.14,0,0,1-.56-.7,2.28,2.28,0,0,1-.22-1.06,2.57,2.57,0,0,1,.19-1,2.52,2.52,0,0,1,.55-.82,3.07,3.07,0,0,1,.91-.57,3.28,3.28,0,0,1,1.22-.21,3.57,3.57,0,0,1,1.38.25,3.36,3.36,0,0,1,1.12.74Z"/><path class="cls-2" d="M350.2,261.28v.6H345v4h4.34v.58H345v4.13h5.21v.6h-5.93v-9.91Z"/><path class="cls-2" d="M219,13.53l1.53-2.75,0-4.87,1,.53-.09,2.29c0,.63,0,1.13-.1,1.7h0c.42-.32.88-.62,1.4-1L224.7,8.2l1,.53-4.25,2.51L219.87,14Z"/><path class="cls-2" d="M229.67,15.7c-1.41,2.13-3.45,2.4-5,1.36s-1.94-3.1-.71-5,3.37-2.44,5-1.35S230.88,13.86,229.67,15.7Zm-4.87-3.07c-.87,1.32-.94,3,.32,3.81s2.75.14,3.68-1.26c.81-1.24,1-2.95-.31-3.82S225.7,11.27,224.8,12.63Z"/><path class="cls-2" d="M233.79,14.28l-2.72,3.45c-1,1.3-.88,2.31-.1,2.92s1.86.55,2.88-.74l2.71-3.44.76.59-2.67,3.4c-1.41,1.79-2.93,1.78-4.19.78s-1.56-2.32-.13-4.13l2.7-3.43Z"/><path class="cls-2" d="M236.17,25.94l3.9-6.58.72.71-2,3.28c-.5.81-1,1.61-1.42,2.21h0c.61-.43,1.39-.89,2.25-1.39l3.34-2,.71.71-2,3.3a24.76,24.76,0,0,1-1.43,2.17l0,0c.68-.47,1.42-.91,2.23-1.4l3.34-2,.69.69-6.72,3.77-.71-.7,2.06-3.4a20.41,20.41,0,0,1,1.37-2.06h0a23.74,23.74,0,0,1-2.11,1.31l-3.48,2Z"/><path class="cls-2" d="M247.92,27.55l-5.58,4.88-.63-.72,5.58-4.88Z"/><path class="cls-2" d="M249.17,29l.59.75-5.17,4.11,2,2.48-.63.5-2.57-3.23Z"/><path class="cls-2" d="M252.57,33.35l.55.78-5.41,3.81,1.83,2.59-.66.47-2.38-3.38Z"/><path class="cls-2" d="M250.63,43.72l6.45-3.65.52.91-2.1,3.91a19.65,19.65,0,0,1-1.44,2.35h0c.82-.56,1.59-1,2.6-1.59l2.7-1.53.45.78-6.46,3.66-.48-.85,2.12-3.9a23.34,23.34,0,0,1,1.47-2.43l0,0c-.79.51-1.56,1-2.63,1.57l-2.76,1.56Z"/><path class="cls-2" d="M258.82,51.92l-1.23-2.6-2.42,1.14,1.37,2.9-.72.35L254,49.94l6.7-3.17,1.71,3.62-.72.34L260.42,48l-2.11,1,1.23,2.6Z"/><path class="cls-2" d="M256.89,56.35l6-5,.38,1-3,2.4c-.82.66-1.56,1.24-2.29,1.74v0c.88-.11,1.86-.17,2.88-.21l3.87-.17.37,1-7.86.22Z"/><path class="cls-2" d="M262.9,63.08,262,60.33l-2.55.8,1,3.07-.76.24-1.26-4,7.08-2.23,1.2,3.82-.76.24-.92-2.9-2.24.7.87,2.75Z"/><path class="cls-2" d="M267.08,63.79a10.49,10.49,0,0,1,.59,1.75,3,3,0,0,1-.08,2.22,1.82,1.82,0,0,1-1.23.9,1.94,1.94,0,0,1-2.17-.9h0A1.87,1.87,0,0,1,263,69.18a12.4,12.4,0,0,0-1.84,1l-.24-1a10.65,10.65,0,0,1,1.6-.9c.94-.45,1.22-.93,1.05-1.78l-.21-.88-3.12.76-.23-.92ZM264,65.52l.23,1c.25,1,.95,1.49,1.77,1.29s1.17-1,.94-2a3.94,3.94,0,0,0-.31-.9Z"/><path class="cls-2" d="M269,72.35l.14.94-6.54,1,.47,3.14-.79.12-.61-4.08Z"/><path class="cls-2" d="M264.85,79.45l-2.39-.59-.08-1L270,79.8l.1,1.15-7.2,3.11-.08-1,2.26-1Zm.93,2.36,2.07-.89c.47-.2.9-.35,1.32-.49v0c-.45-.08-.91-.16-1.37-.27l-2.19-.56Z"/><path class="cls-2" d="M263.18,90.05a4.85,4.85,0,0,1-.39-2,3.47,3.47,0,0,1,3.69-3.73,3.69,3.69,0,0,1,4,3.81,3.85,3.85,0,0,1-.3,1.76l-.78-.22a3.46,3.46,0,0,0,.28-1.5,2.76,2.76,0,0,0-3.11-2.84,2.7,2.7,0,0,0-2.93,2.9,4,4,0,0,0,.33,1.56Z"/><path class="cls-2" d="M270.24,91.61l-.06,1-3.57-.24v0c.27.21.52.43.75.63L270,95.44l-.08,1.19-3-2.89-4.45,2.61.08-1.13,3.79-2.2-.77-.75-2.82-.19.07-1Z"/><path class="cls-2" d="M264.25,100.77l-2.17-1.14.16-1,6.9,3.7-.19,1.14-7.72,1.28.16-1,2.43-.4Zm.34,2.52,2.23-.37c.5-.08.95-.12,1.4-.16v0c-.42-.18-.84-.37-1.26-.59l-2-1.06Z"/><path class="cls-2" d="M261,105.67l7.19,1.81-.25,1-4.22,1.39a22.08,22.08,0,0,1-2.66.7v0c1,.16,1.87.36,3,.64l3,.76-.22.87-7.19-1.81.24-.94,4.22-1.36a22.48,22.48,0,0,1,2.74-.74v0c-.92-.17-1.79-.37-3-.67l-3.07-.77Z"/><path class="cls-2" d="M258.71,114l3,1,4.79-.87-.35,1-2.27.35c-.62.09-1.12.16-1.68.21v0c.39.35.77.75,1.21,1.2l1.61,1.66-.35,1L261.4,116l-3-1Z"/><path class="cls-2" d="M262.75,122.16l.87-2.08.75.31-2.1,5.07-.75-.31.86-2.09-6.09-2.53.37-.89Z"/><path class="cls-2" d="M261.32,127.44l-2.77-1.39-1.61,3.2,2.77,1.39-.43.87-6.63-3.33.44-.87,3.1,1.56,1.61-3.2-3.1-1.56.43-.86,6.62,3.33Z"/><path class="cls-2" d="M257.79,134.05l-6.41-3.71.47-.83,6.42,3.71Z"/><path class="cls-2" d="M250.6,131.73l6.2,4.06-.57.88-4.44-.07a22,22,0,0,1-2.75-.21v0c.88.47,1.64.94,2.61,1.57l2.6,1.7-.5.76-6.2-4.06.53-.81,4.44.09a25.35,25.35,0,0,1,2.83.19v0c-.82-.47-1.57-.93-2.6-1.61l-2.65-1.74Z"/><path class="cls-2" d="M243.45,142.26a6.67,6.67,0,0,1,1.08-2,3.78,3.78,0,1,1,5.83,4.82,4.6,4.6,0,0,1-1.41,1.25l-.47-.67a3.78,3.78,0,0,0,1.26-1.09,2.77,2.77,0,0,0-.51-4.18,2.72,2.72,0,0,0-4.12.41,3,3,0,0,0-.63,1.12l1.74,1.36.93-1.18.61.47-1.51,1.93Z"/></g></g></svg>