<svg xmlns="http://www.w3.org/2000/svg" xmlns:xlink="http://www.w3.org/1999/xlink" viewBox="0 0 143.94 116.02"><defs><style>.cls-1{fill:url(#radial-gradient);}.cls-2{font-size:7px;fill:#fff;font-family:MyriadPro-Regular, Myriad Pro;}</style><radialGradient id="radial-gradient" cx="80.42" cy="23.72" r="101.69" gradientUnits="userSpaceOnUse"><stop offset="0" stop-color="#dd008e"/><stop offset="0.22" stop-color="#cd088e"/><stop offset="0.66" stop-color="#a31c8e"/><stop offset="1" stop-color="#7d2e8e"/></radialGradient></defs><title>logo</title><g id="Layer_2" data-name="Layer 2"><g id="Layer_1-2" data-name="Layer 1"><path class="cls-1" d="M110.05,59.15A53.46,53.46,0,0,1,78.3,108C80.11,97,79.45,86.31,71,77.09c-2-2.19-3.53-4.14-.34-6.68-2.62-1.36-2.38-3.16-1.9-5.29,2-8.85,3.83-17.72,5.73-26.59.59-2.75,1.45-5.21,4.75-5.78a6.41,6.41,0,0,0,2-1.19l-.32-.74c-.94.08-1.89.12-2.83.26-4.37.62-4.44.57-5.82-3.72-.35-1.08-.84-2.11-1.26-3.16l-1,.37c.37,1.7.75,3.42,1.27,5.84-1.86-1.48-3.13-2.47-4.39-3.48-.18.19-.36.4-.52.58,1,1.34,1.92,2.68,3.15,4.38l-4-.48c5.59,4.1,6,4.45,3.54,10.85-2.88,7.64-6.27,15.08-9.51,22.57a12.32,12.32,0,0,1-1.94,2.54l-.82-.46c.64-1.83,1.22-3.69,1.92-5.5.49-1.29.84-2.24-.74-3.25s-2.9-2.7-4.41-4c-.74-.64-1.8-1.64-2.51-1.49-3.34.68-5.3-1.32-7.14-3.41-.55-.63-.35-1.91-.55-3.22a16.71,16.71,0,0,0-11.3,3.48c-6.26,4.62-9.95,10.29-8,18.35-1.23.46-2,.77-2.22.83.56,1.16.79,2.68,1.59,3.09C26.91,73.56,29.85,76,33,78.07c3.63,2.37,11,1.8,14.12-1.26,1.61-1.61,3-1.51,4.8-.36-.63,1-1.21,2-1.77,2.87C48.42,82.21,46.11,84.9,45,88c-1.66,4.75-3.59,9-8.44,11.44h4.19c-.88,1.36-1.59,2.43-2.3,3.51l.5.38,4.45-2.85c-.5,2.09-.85,3.48-1.18,4.87l.74.25,2.45-4,2.3,1.61,1,0c-3.69-5.82-1-10.11,2.4-14.19,1,.17,2.19.73,2.66.37,2.37-1.84,3.25,0,4.11,1.55,2.45,4.38,1.37,8.82-.53,12.94a28.19,28.19,0,0,0-2.43,8.75,53.46,53.46,0,1,1,55.11-53.44Z"/><text class="cls-2" transform="matrix(0.89, 0.45, -0.45, 0.89, 80.32, 7.96)">Y</text><text class="cls-2" transform="translate(83.43 9.5) rotate(30.77)">O</text><text class="cls-2" transform="matrix(0.81, 0.58, -0.58, 0.81, 87.49, 11.92)">U</text><text class="cls-2" transform="translate(91.11 14.54) rotate(38.41)"> </text><text class="cls-2" transform="matrix(0.75, 0.67, -0.67, 0.75, 92.08, 15.21)">W</text><text class="cls-2" transform="translate(96.37 19.13) rotate(45.93)">I</text><text class="cls-2" transform="translate(97.53 20.29) rotate(47.95)">L</text><text class="cls-2" transform="translate(99.7 22.69) rotate(51.21)">L</text><text class="cls-2" transform="matrix(0.59, 0.8, -0.8, 0.59, 101.72, 25.24)"> </text><text class="cls-2" transform="matrix(0.55, 0.83, -0.83, 0.55, 102.6, 26.36)">N</text><text class="cls-2" transform="translate(105.08 30.15) rotate(60.63)">E</text><text class="cls-2" transform="translate(106.77 33.13) rotate(64.36)">V</text><text class="cls-2" transform="matrix(0.37, 0.93, -0.93, 0.37, 108.41, 36.57)">E</text><text class="cls-2" transform="matrix(0.32, 0.95, -0.95, 0.32, 109.69, 39.71)">R</text><text class="cls-2" transform="translate(110.83 43.24) rotate(74.23)"> </text><text class="cls-2" transform="translate(111.24 44.62) rotate(76.61)">L</text><text class="cls-2" transform="matrix(0.17, 0.99, -0.99, 0.17, 112.01, 47.76)">A</text><text class="cls-2" transform="translate(112.69 51.77) rotate(84.36)">C</text><text class="cls-2" transform="matrix(0.03, 1, -1, 0.03, 113.08, 55.75)">K</text><text class="cls-2" transform="matrix(-0.01, 1, -1, -0.01, 113.17, 59.49)"> </text><text class="cls-2" transform="translate(113.19 60.91) rotate(93.69)">A</text><text class="cls-2" transform="translate(112.93 65.1) rotate(98.08)">N</text><text class="cls-2" transform="matrix(-0.21, 0.98, -0.98, -0.21, 112.29, 69.53)">Y</text><text class="cls-2" transform="translate(111.45 73.37) rotate(106.01)">T</text><text class="cls-2" transform="translate(110.53 76.65) rotate(110.02)">H</text><text class="cls-2" transform="translate(108.96 80.86) rotate(113.13)">I</text><text class="cls-2" transform="translate(108.37 82.36) rotate(116.26)">N</text><text class="cls-2" transform="translate(106.36 86.42) rotate(120.84)">G</text></g></g></svg>